<svg width="53" height="53" viewBox="0 0 53 53" fill="none" xmlns="http://www.w3.org/2000/svg">
<rect width="53" height="53" fill="#FF6660"/>
<path d="M14.6936 46.7672C12.6405 46.7672 10.8954 46.3822 9.4583 45.6123C8.04683 44.8424 6.96898 43.7774 6.22475 42.4173C5.48051 41.0571 5.1084 39.4917 5.1084 37.7209C5.1084 36.0271 5.54467 34.5002 6.41722 33.14C7.28977 31.7799 8.45744 30.702 9.92024 29.9065C11.383 29.0853 13.0127 28.6746 14.8091 28.6746C17.2214 28.6746 19.1975 29.3804 20.7373 30.7919C22.3027 32.1777 23.3164 34.1922 23.7783 36.8355L10.6901 40.993L9.4968 38.0674L18.9665 34.8723L17.8502 35.3727C17.6449 34.7055 17.2727 34.1281 16.7338 33.6405C16.2205 33.1272 15.4378 32.8706 14.3856 32.8706C13.5901 32.8706 12.8843 33.063 12.2684 33.448C11.6782 33.8073 11.2162 34.3334 10.8826 35.0263C10.5747 35.6935 10.4207 36.4891 10.4207 37.413C10.4207 38.4651 10.6131 39.3505 10.9981 40.0691C11.383 40.762 11.9091 41.2881 12.5764 41.6474C13.2436 42.0067 13.9879 42.1863 14.8091 42.1863C15.3993 42.1863 15.9639 42.0836 16.5028 41.8783C17.0674 41.673 17.6192 41.4036 18.1581 41.07L20.5448 45.0734C19.6466 45.5867 18.6714 45.9973 17.6192 46.3052C16.5927 46.6132 15.6175 46.7672 14.6936 46.7672Z" fill="white"/>
<path d="M25.5004 43.5336C25.5004 42.7381 25.7827 42.0708 26.3473 41.5319C26.9375 40.993 27.5791 40.7235 28.272 40.7235C28.9136 40.7235 29.5167 40.993 30.0813 41.5319C30.6715 42.0708 30.9666 42.7381 30.9666 43.5336C30.9666 44.3805 30.6715 45.0606 30.0813 45.5738C29.5167 46.0614 28.9136 46.3052 28.272 46.3052C27.5791 46.3052 26.9375 46.0614 26.3473 45.5738C25.7827 45.0606 25.5004 44.3805 25.5004 43.5336Z" fill="white"/>
</svg>
